<svg width="49" height="41" viewBox="0 0 49 41" fill="none" xmlns="http://www.w3.org/2000/svg">
    <path d="M16.5301 13.1786C16.5301 9.13506 19.834 5.85714 23.9096 5.85714C27.9852 5.85714 31.2892 9.13506 31.2892 13.1786V33.6786C31.2892 37.7221 27.9852 41 23.9096 41C19.834 41 16.5301 37.7221 16.5301 33.6786V13.1786Z" fill="#35555F"/>
    <path d="M35.4217 26.0643C35.4217 22.3443 38.4613 19.3286 42.2108 19.3286C45.9604 19.3286 49 22.3443 49 26.0643V34.2643C49 37.9843 45.9604 41 42.2108 41C38.4613 41 35.4217 37.9843 35.4217 34.2643V26.0643Z" fill="#35555F"/>
    <path d="M0 5.85714C0 2.62233 2.64314 0 5.90361 0C9.16409 0 11.8072 2.62233 11.8072 5.85714V35.1429C11.8072 38.3777 9.16409 41 5.90361 41C2.64314 41 0 38.3777 0 35.1429V5.85714Z" fill="#35555F"/>
    </svg>
    